# 3ds Max Wavefront OBJ Exporter v0.97b - (c)2007 guruware
# File Created: 17.02.2017 19:29:44

mtllib green_tree_light.mtl

#
# object Cylinder004
#

v  -2390.5293 0.0314 -1057.2389
v  -2395.3179 0.0157 -1065.5331
v  -2394.3843 40.8867 -1065.5331
v  -2389.6013 40.6524 -1057.2389
v  -2404.8953 -0.0157 -1065.5331
v  -2403.9502 41.3554 -1065.5331
v  -2409.6838 -0.0314 -1057.2389
v  -2408.7332 41.5898 -1057.2389
v  -2404.8953 -0.0157 -1048.9447
v  -2403.9502 41.3554 -1048.9447
v  -2395.3179 0.0157 -1048.9447
v  -2394.3843 40.8867 -1048.9447
v  -2395.1660 0.0162 -1057.2389
v  -2397.6362 0.0081 -1061.5176
v  -2402.5769 -0.0081 -1061.5176
v  -2405.0471 -0.0162 -1057.2389
v  -2402.5769 -0.0081 -1052.9602
v  -2397.6362 0.0081 -1052.9602
v  -2400.1067 0.0000 -1057.2389
v  -2382.1682 40.2882 -1086.7175
v  -2365.1692 39.4553 -1057.2389
v  -2416.1663 41.9540 -1086.7175
v  -2433.1655 42.7869 -1057.2389
v  -2416.1663 41.9540 -1027.7603
v  -2382.1682 40.2882 -1027.7603
v  -2384.2207 70.8998 -1079.5334
v  -2371.3132 70.7280 -1057.2389
v  -2409.8638 73.1702 -1079.5334
v  -2422.6853 74.3054 -1057.2389
v  -2409.7734 74.1825 -1034.9443
v  -2384.1333 71.8795 -1034.9443
v  -2381.6609 67.4123 -1084.4705
v  -2365.9944 66.0916 -1057.2389
v  -2412.9941 70.0536 -1084.4705
v  -2428.6606 71.3743 -1057.2389
v  -2412.9941 70.0536 -1030.0073
v  -2381.6609 67.4123 -1030.0073
v  -2384.2058 85.9298 -1077.0129
v  -2372.8552 84.7037 -1057.2389
v  -2406.9067 88.3820 -1077.0129
v  -2418.2573 89.6081 -1057.2389
v  -2406.9067 88.3820 -1037.4648
v  -2384.2058 85.9298 -1037.4648
v  -2381.0703 82.8534 -1082.9763
v  -2366.2910 81.3096 -1057.2389
v  -2410.6284 85.9409 -1082.9763
v  -2425.4075 87.4847 -1057.2389
v  -2410.6284 85.9409 -1031.5015
v  -2381.0703 82.8534 -1031.5015
v  -2383.5801 119.0569 -1070.7179
v  -2375.8853 117.8944 -1057.2389
v  -2398.9697 121.3819 -1070.7179
v  -2406.6646 122.5444 -1057.2389
v  -2398.9697 121.3819 -1043.7599
v  -2383.5801 119.0569 -1043.7599
v  -2380.8425 115.4617 -1076.3254
v  -2369.9399 113.8598 -1057.2389
v  -2402.6477 118.6656 -1076.3254
v  -2413.5503 120.2676 -1057.2389
v  -2402.6477 118.6656 -1038.1523
v  -2380.8425 115.4617 -1038.1523
v  -2381.8921 143.0876 -1066.7527
v  -2376.4885 142.1008 -1057.2389
v  -2392.6987 145.0614 -1066.7527
v  -2398.1023 146.0484 -1057.2389
v  -2392.6987 145.0614 -1047.7251
v  -2381.8921 143.0876 -1047.7251
v  -2379.0691 142.5721 -1071.7231
v  -2370.8425 141.0695 -1057.2389
v  -2395.5220 145.5771 -1071.7231
v  -2403.7483 147.0796 -1057.2389
v  -2395.5220 145.5771 -1042.7546
v  -2379.0691 142.5721 -1042.7546
v  -2378.8115 183.8774 -1057.4861
v  -2378.6726 183.8445 -1057.2389
v  -2379.0894 183.9431 -1057.4861
v  -2379.2283 183.9760 -1057.2389
v  -2379.0894 183.9431 -1056.9917
v  -2378.8115 183.8774 -1056.9917
v  -2378.9504 183.9103 -1057.2389
# 80 vertices

vn 0.9997 -0.0228 0.0000
vn 0.4937 -0.0113 -0.8696
vn 0.9997 -0.0228 -0.0000
vn -0.5062 0.0116 -0.8623
vn -0.9997 0.0228 0.0000
vn -0.5062 0.0116 0.8624
vn 0.4937 -0.0113 0.8696
vn 0.0033 -1.0000 0.0000
vn 0.0033 -1.0000 -0.0000
vn -0.0489 -0.9988 -0.0000
vn -0.0489 -0.9988 0.0000
vn 0.8547 0.1701 -0.4904
vn 0.0149 0.2254 -0.9742
vn -0.8280 0.2773 -0.4874
vn -0.8304 0.2744 0.4848
vn 0.0146 0.2187 0.9757
vn 0.8572 0.1663 0.4874
vn -0.5802 -0.7523 0.3121
vn -0.0713 -0.8272 0.5574
vn 0.4190 -0.8625 0.2838
vn 0.4753 -0.8277 -0.2984
vn -0.0651 -0.7502 -0.6580
vn -0.6248 -0.7104 -0.3239
vn -0.0980 -0.9939 -0.0506
vn 0.8330 0.3039 -0.4623
vn 0.0351 0.3721 -0.9275
vn -0.7676 0.4411 -0.4651
vn -0.7676 0.4411 0.4651
vn 0.0351 0.3721 0.9275
vn 0.8330 0.3039 0.4623
vn -0.4519 -0.8678 0.2066
vn -0.0956 -0.9016 0.4218
vn 0.2754 -0.9370 0.2151
vn 0.2754 -0.9370 -0.2151
vn -0.0956 -0.9016 -0.4218
vn -0.4519 -0.8678 -0.2066
vn 0.8526 0.2215 -0.4733
vn 0.0384 0.3191 -0.9469
vn -0.7759 0.4169 -0.4734
vn -0.7759 0.4169 0.4734
vn 0.0384 0.3191 0.9469
vn 0.8526 0.2215 0.4733
vn -0.5464 -0.8012 0.2440
vn -0.1278 -0.8597 0.4945
vn 0.3018 -0.9199 0.2505
vn 0.3018 -0.9199 -0.2505
vn -0.1278 -0.8597 -0.4945
vn -0.5464 -0.8012 -0.2440
vn 0.8592 0.1977 -0.4719
vn 0.0518 0.3260 -0.9439
vn -0.7556 0.4543 -0.4719
vn -0.7556 0.4543 0.4719
vn 0.0518 0.3260 0.9439
vn 0.8592 0.1977 0.4719
vn -0.1797 -0.9837 -0.0000
vn -0.1797 -0.9837 0.0000
vn 0.8656 0.1584 -0.4750
vn 0.0596 0.3248 -0.9439
vn -0.7357 0.4890 -0.4687
vn -0.7357 0.4890 0.4687
vn 0.0596 0.3248 0.9439
vn 0.8656 0.1584 0.4750
vn 0.2302 0.9731 -0.0000
# 63 vertex normals

vt 0.7500 0.0000 1.0000
vt 0.9167 0.0000 1.0000
vt 0.9167 1.0000 1.0000
vt 0.7500 1.0000 1.0000
vt 1.0833 0.0000 1.0000
vt 1.0833 1.0000 1.0000
vt 0.0833 0.0000 1.0000
vt 0.2500 0.0000 1.0000
vt 0.2500 1.0000 1.0000
vt 0.0833 1.0000 1.0000
vt 0.4167 0.0000 1.0000
vt 0.4167 1.0000 1.0000
vt 0.5833 0.0000 1.0000
vt 0.5833 1.0000 1.0000
# 14 texture coords

g Cylinder004
usemtl tronco
s 8
f 1/1/1 2/2/2 3/3/2 4/4/3 
f 2/2/2 5/5/4 6/6/4 3/3/2 
f 5/7/4 7/8/5 8/9/5 6/10/4 
f 7/8/5 9/11/6 10/12/6 8/9/5 
f 9/11/6 11/13/7 12/14/7 10/12/6 
f 11/13/7 1/1/1 4/4/3 12/14/7 
s off
f 2/2/8 1/1/8 13/1/8 14/2/8 
f 5/5/9 2/2/9 14/2/9 15/5/9 
f 7/8/9 5/7/9 15/7/9 16/8/9 
f 9/11/8 7/8/8 16/8/8 17/11/8 
f 11/13/9 9/11/9 17/11/9 18/13/9 
f 1/1/9 11/13/9 18/13/9 13/1/9 
f 14/2/8 13/1/8 18/13/8 19/13/8 
f 16/8/8 15/7/8 14/11/8 19/13/8 
f 18/13/9 17/11/9 16/8/9 19/13/9 
usemtl verde_debil
f 4/4/10 3/3/10 20/3/10 21/4/10 
f 3/3/10 6/6/10 22/6/10 20/3/10 
f 6/10/10 8/9/10 23/9/10 22/10/10 
f 8/9/11 10/12/11 24/12/11 23/9/11 
f 10/12/11 12/14/11 25/14/11 24/12/11 
f 12/14/11 4/4/11 21/4/11 25/14/11 
f 21/4/12 20/3/12 26/3/12 27/4/12 
f 20/3/13 22/6/13 28/6/13 26/3/13 
f 22/10/14 23/9/14 29/9/14 28/10/14 
f 23/9/15 24/12/15 30/12/15 29/9/15 
f 24/12/16 25/14/16 31/14/16 30/12/16 
f 25/14/17 21/4/17 27/4/17 31/14/17 
f 27/4/18 26/3/18 32/3/18 33/4/18 
f 26/3/19 28/6/19 34/6/19 32/3/19 
f 28/10/20 29/9/20 35/9/20 34/10/20 
f 29/9/21 30/12/21 36/12/21 35/9/21 
f 30/12/22 31/14/22 37/14/22 36/12/22 
f 31/14/23 27/4/23 33/4/23 37/14/23 
f 33/4/24 32/3/24 32/3/24 33/4/24 
f 32/3/24 34/6/24 34/6/24 32/3/24 
f 34/10/24 35/9/24 35/9/24 34/10/24 
f 35/9/24 36/12/24 36/12/24 35/9/24 
f 36/12/24 37/14/24 37/14/24 36/12/24 
f 37/14/24 33/4/24 33/4/24 37/14/24 
f 33/4/25 32/3/25 38/3/25 39/4/25 
f 32/3/26 34/6/26 40/6/26 38/3/26 
f 34/10/27 35/9/27 41/9/27 40/10/27 
f 35/9/28 36/12/28 42/12/28 41/9/28 
f 36/12/29 37/14/29 43/14/29 42/12/29 
f 37/14/30 33/4/30 39/4/30 43/14/30 
f 39/4/31 38/3/31 44/3/31 45/4/31 
f 38/3/32 40/6/32 46/6/32 44/3/32 
f 40/10/33 41/9/33 47/9/33 46/10/33 
f 41/9/34 42/12/34 48/12/34 47/9/34 
f 42/12/35 43/14/35 49/14/35 48/12/35 
f 43/14/36 39/4/36 45/4/36 49/14/36 
f 45/4/37 44/3/37 50/3/37 51/4/37 
f 44/3/38 46/6/38 52/6/38 50/3/38 
f 46/10/39 47/9/39 53/9/39 52/10/39 
f 47/9/40 48/12/40 54/12/40 53/9/40 
f 48/12/41 49/14/41 55/14/41 54/12/41 
f 49/14/42 45/4/42 51/4/42 55/14/42 
f 51/4/43 50/3/43 56/3/43 57/4/43 
f 50/3/44 52/6/44 58/6/44 56/3/44 
f 52/10/45 53/9/45 59/9/45 58/10/45 
f 53/9/46 54/12/46 60/12/46 59/9/46 
f 54/12/47 55/14/47 61/14/47 60/12/47 
f 55/14/48 51/4/48 57/4/48 61/14/48 
f 57/4/49 56/3/49 62/3/49 63/4/49 
f 56/3/50 58/6/50 64/6/50 62/3/50 
f 58/10/51 59/9/51 65/9/51 64/10/51 
f 59/9/52 60/12/52 66/12/52 65/9/52 
f 60/12/53 61/14/53 67/14/53 66/12/53 
f 61/14/54 57/4/54 63/4/54 67/14/54 
f 63/4/55 62/3/55 68/3/55 69/4/55 
f 62/3/55 64/6/55 70/6/55 68/3/55 
f 64/10/56 65/9/56 71/9/56 70/10/56 
f 65/9/56 66/12/56 72/12/56 71/9/56 
f 66/12/56 67/14/56 73/14/56 72/12/56 
f 67/14/56 63/4/56 69/4/56 73/14/56 
f 69/4/57 68/3/57 74/3/57 75/4/57 
f 68/3/58 70/6/58 76/6/58 74/3/58 
f 70/10/59 71/9/59 77/9/59 76/10/59 
f 71/9/60 72/12/60 78/12/60 77/9/60 
f 72/12/61 73/14/61 79/14/61 78/12/61 
f 73/14/62 69/4/62 75/4/62 79/14/62 
f 74/3/63 76/6/63 77/4/63 80/14/63 
f 77/9/63 78/12/63 79/14/63 80/14/63 
f 79/14/63 75/4/63 74/3/63 80/14/63 
# 84 polygons

